# xmcd
#
# Track frame offsets:
#	150
#	15600
#	31800
#	43889
#	60453
#	77774
#	95742
#	107523
#	114048
#	122898
#	133325
#	150125
#
# Disc length: 2153 seconds
#
# Revision: 1
# Processed by: cddbd v1.5.2PL0 Copyright (c) Steve Scherf et al.
# Submitted via: audiograbber 1.83.01
#
DISCID=8e08670c
DTITLE=The Ricky Kings - Holy Fish Rain
DYEAR=2011
DGENRE=Rüpelblues
TTITLE0=Shoe Boy Story
TTITLE1=Nut Mask Animal
TTITLE2=Jackpot Taxi Land
TTITLE3=Hot Stone Coffee
TTITLE4=La Mer De L'Amour
TTITLE5=Holy Fish Rain
TTITLE6=Spider Wave Jacket
TTITLE7=Blue Shine Dancing
TTITLE8=Dirty Bone System
TTITLE9=Candle Organ Diner
TTITLE10=Tyajolaya Utrata Zdaniy
TTITLE11=Sunny Boy Girl
EXTD=LC 12046, EAN 4250137236216
EXTT0=
EXTT1=
EXTT2=
EXTT3=
EXTT4=
EXTT5=
EXTT6=
EXTT7=
EXTT8=
EXTT9=
EXTT10=
EXTT11=
PLAYORDER=
